<?xml version="1.0" encoding="UTF-8"?>
<svg width="300px" height="300px" viewBox="0 0 300 300" version="1.1" xmlns="http://www.w3.org/2000/svg" xmlns:xlink="http://www.w3.org/1999/xlink">
    <title>kai-engelhardt-logo-favicon</title>
    <defs>
        <linearGradient x1="50%" y1="0%" x2="50%" y2="100%" id="linearGradient-1">
            <stop stop-color="color(display-p3 0.293 0.000 0.634)" offset="0%"></stop>
            <stop stop-color="color(display-p3 1.000 0.592 0.747)" offset="100%"></stop>
        </linearGradient>
        <filter x="-6.5%" y="-3.1%" width="112.9%" height="112.5%" filterUnits="objectBoundingBox" id="filter-2">
            <feOffset dx="0" dy="8" in="SourceAlpha" result="shadowOffsetOuter1"></feOffset>
            <feGaussianBlur stdDeviation="4" in="shadowOffsetOuter1" result="shadowBlurOuter1"></feGaussianBlur>
            <feColorMatrix values="0 0 0 0 0   0 0 0 0 0   0 0 0 0 0  0 0 0 0.25 0" type="matrix" in="shadowBlurOuter1" result="shadowMatrixOuter1"></feColorMatrix>
            <feMerge>
                <feMergeNode in="shadowMatrixOuter1"></feMergeNode>
                <feMergeNode in="SourceGraphic"></feMergeNode>
            </feMerge>
        </filter>
    </defs>
    <g id="kai-engelhardt-logo-favicon" stroke="none" fill="none" fill-rule="evenodd">
        <path d="M75.6346134,-3.62733656e-15 L224.365387,3.62733656e-15 C250.665189,-2.107587e-15 260.202133,2.73835553 269.816948,7.88041476 C279.431763,13.022474 286.977526,20.5682369 292.119585,30.1830517 C297.261644,39.7978666 300,49.3348106 300,75.6346134 L300,224.365387 C300,250.665189 297.261644,260.202133 292.119585,269.816948 C286.977526,279.431763 279.431763,286.977526 269.816948,292.119585 C260.202133,297.261644 250.665189,300 224.365387,300 L75.6346134,300 C49.3348106,300 39.7978666,297.261644 30.1830517,292.119585 C20.5682369,286.977526 13.022474,279.431763 7.88041476,269.816948 C2.73835553,260.202133 0,250.665189 0,224.365387 L3.62733656e-15,75.6346134 C-2.107587e-15,49.3348106 2.73835553,39.7978666 7.88041476,30.1830517 C13.022474,20.5682369 20.5682369,13.022474 30.1830517,7.88041476 C39.7978666,2.73835553 49.3348106,2.107587e-15 75.6346134,-3.62733656e-15 Z" id="Rectangle" fill="url(#linearGradient-1)"></path>
        <g id="Cube" filter="url(#filter-2)" stroke-width="1" transform="translate(26, 22)">
            <path d="M124,0 L248,46.6 L248,209.282114 L124,256 L0,209.150511 L0,46.6 L124,0 Z M7.95,55.9459092 L7.95,203.667998 L120.03,246.081203 L120.025,98.5 L7.95,55.9459092 Z M240.059972,56.3924857 L127.975,98.5 L127.98,245.903778 L240.059972,203.787207 L240.059972,56.3924857 Z M124,8.46291586 L14,49.98 L124,91.4950084 L234,49.98 L124,8.46291586 Z" id="Cube-Frame" fill="color(display-p3 1.000 1.000 1.000)"></path>
            <path d="M240,56 L240,203.77482 L128.004996,246 L128,98.2161003 L240,56 Z M209.548976,95.7101452 C208.778372,95.7584473 208.094278,95.8739389 207.496694,96.05662 L171.592712,109.582966 C166.80678,111.81828 164.299405,116.084657 164.070588,122.382097 L164.070588,124.249921 L163.902188,198.68828 C163.830077,202.205498 164.346238,204.655344 165.450672,206.03782 C167.107322,208.111534 168.796665,207.884841 170.175478,207.730177 C171.503456,207.349112 172.179038,207.105581 173.30669,206.670787 C173.30669,206.670787 184.608623,202.381089 207.212489,193.801694 C209.866829,192.596043 211.736741,190.598704 212.822225,187.809679 C213.272031,186.763656 213.566265,185.587108 213.704925,184.280035 L213.704925,181.501229 C213.31242,179.146576 212.601526,177.717412 211.572243,177.213738 C210.028319,176.458227 209.268241,176.025964 205.598717,177.446562 C205.598717,177.446562 205.594848,177.448023 205.587111,177.450946 L205.552293,177.464099 C204.848209,177.730069 196.135159,181.021451 179.413144,187.338245 L179.413144,162.825322 L205.598717,152.876764 C208.281119,151.774598 210.180506,149.706127 211.296878,146.671351 C211.810385,145.28442 212.029044,143.583525 211.952855,141.568666 C211.582331,138.369374 210.161373,136.769727 207.68998,136.769727 C207.166734,136.769727 206.689641,136.831619 206.2587,136.955402 L179.413144,147.047447 L179.413144,123.671082 L207.212489,113.13121 C208.918516,112.328308 210.279979,111.287164 211.296878,110.007777 C212.822225,108.088697 213.748486,105.444259 213.885401,103.502473 C214.022316,101.560687 213.919964,100.226702 213.562916,98.9680608 C213.205867,97.7094192 212.077734,95.7101452 209.548976,95.7101452 Z" id="E-Side-Background" fill="color(display-p3 0.000 0.000 0.000)"></path>
            <path d="M8,56 L119.995004,98.5238107 L120,246 L8,203.616975 L8,56 Z M44.1346275,96.038845 C42.926682,95.4940798 41.5506798,95.0892589 39.6706322,95.3023536 C36.9520337,96.0447958 35.5950959,98.8178556 35.5998188,103.621533 L35.4596902,181.483184 C35.4596902,181.483184 35.3182889,183.301027 35.6950101,185.82028 C35.76884,187.064409 36.5216225,189.478478 37.8339221,191.508259 C39.0123548,193.330983 40.1810679,194.284941 41.8304264,195.327989 C45.0592583,196.825583 46.8829131,196.825583 48.7790347,195.327989 C50.0431157,194.329593 50.7800187,192.373283 50.9897436,189.459058 L51.0726091,167.72208 L58.4655421,160.382807 C68.3917684,180.195611 75.0919711,193.569254 78.5661503,200.503735 L78.8776811,201.125553 C79.1800492,201.729081 79.4549293,202.277743 79.7023214,202.771539 L80.0527935,203.471084 C80.6025538,204.568408 80.9805139,205.322819 81.186674,205.734316 L81.3149514,205.990358 C81.3531292,206.066561 81.3722181,206.104663 81.3722181,206.104663 C84.5181002,212.055148 88.1509264,213.044648 89.7012189,213.288184 C91.2515114,213.53172 92.9236983,212.91012 93.650236,212.140236 C94.3767737,211.370353 95.0687568,210.284818 95.2988898,209.552131 C95.4689922,209.010566 95.5799155,208.608064 95.7598556,207.554133 C96.3364129,204.177168 95.1148882,199.719101 92.0952815,194.179931 L70.3932138,151.317265 C71.9460445,149.766934 73.4134696,148.301872 74.7954889,146.922077 L75.5408477,146.177918 C77.2602548,144.461279 78.8413188,142.88276 80.2840397,141.442362 L80.8938787,140.833504 C80.9941069,140.733438 81.0936292,140.634075 81.1924457,140.535418 L81.7768747,139.95193 C81.9688611,139.760253 82.1580241,139.571394 82.3443638,139.385354 L82.8949129,138.835691 C82.9852594,138.74549 83.0749001,138.655994 83.1638349,138.567202 L83.688974,138.042909 C83.7750856,137.956936 83.8604912,137.871667 83.9451911,137.787104 L84.4449203,137.288179 C84.5267968,137.206435 84.6079675,137.125395 84.6884324,137.045059 L85.1627516,136.571504 C85.2403931,136.493987 85.3173288,136.417175 85.3935587,136.341068 L85.8424679,135.892881 C86.0626876,135.673016 86.2765547,135.459493 86.4840693,135.252313 L87.0875558,134.649798 C87.1524924,134.584966 87.2167231,134.520838 87.280248,134.457416 L87.8329146,133.905639 C87.8922045,133.846444 87.9507886,133.787955 88.0086668,133.73017 L88.3474662,133.391916 C88.4025211,133.336949 88.4568702,133.282688 88.5105134,133.229131 L88.8239029,132.916246 C88.8747228,132.865508 88.9248369,132.815474 88.9742452,132.766146 L89.399862,132.341214 C89.4450352,132.296113 89.4895026,132.251718 89.5332642,132.208026 L90.244743,131.497693 C90.2800347,131.462458 90.3146204,131.427928 90.3485004,131.394103 L90.6343624,131.108701 C90.7232972,131.019909 90.8058796,130.93746 90.8821095,130.861353 L91.4919485,130.252495 C91.5004184,130.244039 91.5081826,130.236287 91.5152409,130.22924 L91.5491209,130.195415 C91.5618258,130.18273 91.5681783,130.176388 91.5681783,130.176388 C93.8958428,127.70338 93.7421856,124.222524 93.650236,123.054754 C93.592069,121.880998 92.6830611,116.143822 88.2951357,113.011319 C85.3698521,110.922984 82.7367083,110.922984 80.3957043,113.011319 L51.2232749,143.349296 L51.2232749,107.896591 C50.5884585,102.097518 49.2901013,100.471897 47.4185557,98.3916413 C46.4614876,97.3278435 45.3988315,96.6089819 44.1346275,96.038845 Z" id="K-Side-Background" fill="color(display-p3 0.000 0.000 0.000)"></path>
            <path d="M124,8 L234,49.5010375 L124,91 L14,49.5010375 L124,8 Z M125.784204,40.7418309 L79.3949479,56.0708744 C75.2387409,57.4611606 74.752517,58.9108362 77.9362762,60.4199015 C77.9362762,60.4199015 78.1500264,60.5007096 78.5775269,60.6623258 L78.8090896,60.7498678 C79.8481533,61.142685 81.8149523,61.8862316 84.7094867,62.9805079 C88.7688551,64.8886176 93.3016942,64.8886176 98.308004,62.9805079 C103.000724,60.8919751 115.727095,55.3967139 136.487117,46.4947242 L137.852421,45.9093297 L138.543616,45.61301 L125.784204,40.7418309 Z M154.335412,31.1421149 C135.511787,24.3785519 113.025955,27.9551065 107.570942,30.3160459 C104.30077,31.1781384 105.728098,33.4007023 110.712231,33.2030408 C119.788518,32.0803924 127.130059,32.1462796 132.736855,33.4007023 C131.128925,34.9749449 130.177948,35.9059969 129.883927,36.1938584 L129.820027,36.2564192 L129.800293,36.2757394 L129.785234,36.2904832 C128.199464,37.6474685 128.454533,38.7647763 130.55044,39.6424069 C136.665627,41.9708682 139.72322,43.1350989 139.72322,43.1350989 C141.676271,44.0735257 144.200398,44.4195365 147.295601,44.1731312 L154.189014,43.6880206 L157.150139,44.805084 C156.938055,45.5769583 156.832013,45.9628954 156.832013,45.9628954 C156.485438,47.0135483 156.730001,47.7222405 157.565702,48.088972 C160.276832,49.0855978 161.725884,49.6182772 161.912858,49.68701 L161.933633,49.694647 C163.766991,50.2802986 165.532615,50.2802986 167.230505,49.694647 C169.885797,48.7001596 172.136044,47.8573737 173.981247,47.1662892 L174.581313,46.9415463 C178.189209,45.5902796 180.085667,44.8799983 180.270687,44.8107026 L180.285689,44.805084 C181.782496,44.1614937 181.782496,43.4801644 180.285689,42.7610961 C179.094554,42.3074774 177.87966,41.8378431 176.641005,41.3521932 C175.402349,40.8665433 173.810351,40.6630892 171.86501,40.7418309 L167.155989,41.0012553 L164.170371,39.7856006 C164.934077,38.5853741 165.402715,37.8488714 165.576285,37.5760926 L165.625293,37.4990728 C165.631418,37.4894453 165.636523,37.4814224 165.640607,37.475004 L165.652859,37.4557491 C166.25321,36.0360335 164.288965,35.1458999 163.572534,34.7312158 C162.856102,34.3165317 161.26959,33.7811125 154.335412,31.1421149 Z" id="Hammer-Side-Background" fill="color(display-p3 0.000 0.000 0.000)"></path>
            <path d="M164.174861,124.510524 L164.006623,198.872587 C163.934582,202.3862 164.450245,204.833535 165.553614,206.214594 C167.208668,208.286182 168.896383,208.059722 170.273866,207.905216 C171.600564,207.524542 172.275495,207.28126 173.402059,206.846912 C173.402059,206.846912 184.693097,202.561611 207.275173,193.991009 C209.926955,192.786594 211.795065,190.791303 212.879502,188.005136 C213.328875,186.960186 213.622824,185.784843 213.761351,184.479109 L213.761351,181.703152 C213.369225,179.350912 212.659016,177.923213 211.630725,177.420055 C210.08829,176.665318 209.328944,176.233498 205.662957,177.652641 C205.662957,177.652641 196.942847,180.946489 179.502627,187.534185 L179.502627,163.046387 L205.662957,153.108026 C208.342773,152.00699 210.240329,149.940639 211.355625,146.908973 C211.868638,145.523463 212.087086,143.824312 212.01097,141.811518 C211.640803,138.615505 210.221215,137.017498 207.752204,137.017498 C207.229463,137.017498 206.75283,137.079326 206.322305,137.202982 L179.502627,147.284683 L179.502627,123.932278 L207.275173,113.403209 C208.979556,112.60113 210.339707,111.561053 211.355625,110.282977 C212.879502,108.365864 213.80487,105.724137 213.941653,103.784341 C214.078436,101.844545 213.976183,100.511928 213.619479,99.2545763 C213.262774,97.9972248 212.135729,96 209.609409,96 C208.839547,96.0482526 208.156113,96.1636258 207.559105,96.3461196 L171.689734,109.858602 C166.908415,112.091625 164.403457,116.353629 164.174861,122.644614 C164.174861,122.644614 164.174861,123.266584 164.174861,124.510524 Z" id="E" fill="color(display-p3 1.000 1.000 1.000)"></path>
            <path d="M35.0262293,181.167633 L35.1675982,103.370128 C35.1628334,98.5704085 36.5317816,95.7996333 39.2744427,95.0578027 C41.1711308,94.8448836 42.5593121,95.249371 43.7779492,95.7936874 C45.0533429,96.3633546 46.1254047,97.0816239 47.0909439,98.1445453 C48.9790547,100.223087 50.2889038,101.847368 50.929339,107.641665 C50.929339,111.509759 50.929339,123.317591 50.929339,143.065161 L80.3599764,112.752179 C82.7217009,110.665564 85.3781509,110.665564 88.3293265,112.752179 C92.7560898,115.882101 93.6731435,121.61455 93.7318253,122.78734 C93.8245888,123.954147 93.979606,127.432135 91.6313392,129.903106 C91.6313392,129.903106 84.5105437,136.94426 70.2689529,151.026566 L92.1631078,193.853919 C95.2094413,199.388526 96.4417778,203.84292 95.8601174,207.217103 C95.6785846,208.270166 95.5666795,208.672337 95.3950716,209.213455 C95.1629016,209.945539 94.4647936,211.030179 93.7318253,211.799428 C92.9988569,212.568677 91.3118694,213.189766 89.7478551,212.94643 C88.1838408,212.703095 84.5188601,211.71441 81.3451335,205.768827 C81.3451335,205.768827 73.6419917,190.540765 58.2357082,160.08464 L50.7773396,167.417866 L50.6937407,189.136936 C50.4821595,192.04876 49.7387341,194.003458 48.4634646,195.001032 C46.5505603,196.497392 44.7107641,196.497392 41.4533535,195.001032 C39.7893964,193.958843 38.6103388,193.005671 37.4214757,191.184449 C36.0975608,189.15634 35.3381154,186.74426 35.263632,185.501155 C34.8835764,182.983979 35.0262293,181.167633 35.0262293,181.167633 Z" id="K" fill="color(display-p3 1.000 1.000 1.000)"></path>
            <path d="M126.135314,41.4432991 L138.949915,46.291211 C116.876854,55.6679033 103.406972,61.4294173 98.5402686,63.5757532 C93.5123045,65.4747489 88.9598591,65.4747489 84.8829323,63.5757532 C80.3479274,61.8768361 78.080425,61.0273776 78.080425,61.0273776 C74.8828948,59.5255204 75.3712218,58.082769 79.545406,56.6991236 L126.135314,41.4432991 Z M154.810017,31.889436 C156.4267,32.4991343 157.753949,32.9960115 158.848021,33.4047551 L159.336626,33.5872379 C162.565086,34.792669 163.560294,35.1592358 164.087093,35.4613936 C164.806623,35.874097 166.779365,36.7599789 166.176417,38.1729132 L166.164112,38.1920762 C166.082079,38.3198295 165.589881,39.0863495 164.687517,40.4916362 L167.686048,41.7014843 L172.415438,41.4432991 C174.369193,41.3649334 175.968077,41.5674157 177.21209,42.0507459 C178.456103,42.5340762 179.676253,43.0014673 180.872539,43.4529193 C182.37582,44.1685529 182.37582,44.8466279 180.872539,45.4871441 C180.872539,45.4871441 180.811017,45.509977 180.687974,45.5556429 L180.567442,45.6003768 C179.437452,46.0197569 175.1686,47.6040821 167.760887,50.3533521 C166.055653,50.9362064 164.282392,50.9362064 162.441104,50.3533521 C162.441104,50.3533521 162.300266,50.3020487 162.018592,50.199442 L161.809944,50.1234369 C161.121405,49.8726204 159.869517,49.4165903 158.054279,48.7553466 C157.214964,48.3903668 156.969343,47.6850597 157.317417,46.6394252 C157.317417,46.6394252 157.423918,46.2553315 157.636919,45.4871441 L154.662986,44.3754163 L147.739757,44.8582098 C144.631165,45.1034381 142.09612,44.7590801 140.134622,43.8251356 C140.134622,43.8251356 137.063803,42.6664659 130.922166,40.3491264 C128.817193,39.4756879 128.561021,38.3637168 130.15365,37.0132132 L130.168774,36.9985398 C130.299853,36.8713707 131.282941,35.9176026 133.118038,34.1372353 C127.486991,32.8888043 120.113694,32.8232319 110.998149,33.9405179 C105.992457,34.1372353 104.558956,31.9252875 107.843272,31.0673127 C113.32188,28.7176503 135.904972,25.1581791 154.810017,31.889436 Z" id="Hammer" fill="color(display-p3 1.000 1.000 1.000)"></path>
        </g>
    </g>
</svg>