<?xml version="1.0" encoding="UTF-8"?>
<svg width="248px" height="256px" viewBox="0 0 248 256" version="1.1" xmlns="http://www.w3.org/2000/svg" xmlns:xlink="http://www.w3.org/1999/xlink">
    <title>kai-engelhardt-logo-monochrome</title>
    <g id="kai-engelhardt-logo-monochrome" stroke="none" fill="none" fill-rule="evenodd">
        <path d="M124,0 L248,46.6 L248,209.282114 L124,256 L0,209.150511 L0,46.6 L124,0 Z M7.95,55.9459092 L7.95,203.667998 L120.03,246.081203 L120.025,98.5 L7.95,55.9459092 Z M240.059972,56.3924857 L127.975,98.5 L127.98,245.903778 L240.059972,203.787207 L240.059972,56.3924857 Z M124,8.46291586 L14,49.98 L124,91.4950084 L234,49.98 L124,8.46291586 Z" id="Cube-Frame" fill="color(display-p3 0.000 0.000 0.000)"></path>
        <path d="M164.072954,124.466858 L163.904426,198.71375 C163.83226,202.221921 164.348813,204.665467 165.454085,206.044386 C167.111992,208.112766 168.802617,207.886657 170.182475,207.73239 C171.511461,207.352305 172.187556,207.1094 173.316063,206.675725 C173.316063,206.675725 184.626571,202.397061 207.247586,193.839733 C209.90394,192.637183 211.775271,190.644982 212.861578,187.863131 C213.311726,186.819799 213.606182,185.646277 213.744948,184.342565 L213.744948,181.570907 C213.352145,179.22231 212.640712,177.796822 211.610648,177.294444 C210.065553,176.540876 209.304898,176.109725 205.632589,177.526669 C205.632589,177.526669 196.897443,180.815416 179.42715,187.39291 L179.42715,162.943037 L205.632589,153.020069 C208.317027,151.920738 210.217855,149.857587 211.335073,146.830616 C211.848971,145.447253 212.067796,143.750733 211.991548,141.741057 C211.620743,138.549993 210.198707,136.954461 207.725439,136.954461 C207.201796,136.954461 206.724341,137.016194 206.293074,137.139658 L179.42715,147.205745 L179.42715,123.889508 L207.247586,113.376746 C208.954907,112.575909 210.317403,111.537443 211.335073,110.261347 C212.861578,108.347203 213.788542,105.709567 213.925561,103.772776 C214.062579,101.835984 213.96015,100.50543 213.602831,99.2500263 C213.245511,97.9946221 212.116523,96.0004906 209.585846,96.0004906 C208.814657,96.0486685 208.130044,96.163863 207.532007,96.3460742 L171.600785,109.837628 C166.811222,112.067193 164.301944,116.322597 164.072954,122.603838 C164.072954,122.603838 164.072954,123.224845 164.072954,124.466858 Z" id="E" fill="color(display-p3 0.000 0.000 0.000)"></path>
        <path d="M35.4293043,181.518447 L35.569533,103.601352 C35.5648067,98.7942542 36.9227137,96.0192199 39.6432541,95.2762489 C41.5246446,95.0630025 42.9016296,95.4681117 44.1104379,96.0132648 C45.375545,96.5838077 46.4389601,97.3031812 47.3967119,98.3677364 C49.2695942,100.449473 50.5688788,102.076252 51.2041487,107.879455 C51.2041487,111.753495 51.2041487,123.579478 51.2041487,143.357404 L80.3974155,112.997824 C82.7400916,110.908002 85.3751163,110.908002 88.3024893,112.997824 C92.693549,116.132558 93.6032062,121.873819 93.6614147,123.048411 C93.7534301,124.217012 93.907197,127.700347 91.5778699,130.175116 C91.5778699,130.175116 84.5145067,137.227093 70.3877804,151.331047 L92.1053496,194.224234 C95.1271131,199.767348 96.3495103,204.22859 95.7725412,207.60796 C95.5924725,208.662641 95.48147,209.06543 95.3112462,209.60738 C95.0809488,210.34059 94.3884714,211.426897 93.6614147,212.197329 C92.9343581,212.96776 91.2609768,213.589803 89.7095769,213.346094 C88.1581771,213.102385 84.522756,212.11218 81.3746268,206.157457 C81.3746268,206.157457 73.7336142,190.905986 58.4515889,160.403045 L51.0533752,167.747543 L50.9704506,189.5 C50.7605758,192.416299 50.0231465,194.374003 48.7581625,195.37311 C46.8606866,196.87177 45.0357292,196.87177 41.804591,195.37311 C40.1540544,194.32932 38.9845064,193.374682 37.8052321,191.55066 C36.4919951,189.519434 35.7386749,187.103645 35.6647922,185.85863 C35.287802,183.337584 35.4293043,181.518447 35.4293043,181.518447 Z" id="K" fill="color(display-p3 0.000 0.000 0.000)"></path>
        <path d="M125.784204,41.2174066 L138.543616,46.0904692 C116.565618,55.515807 103.153748,61.3072114 98.308004,63.4646823 C93.3016942,65.3735299 88.7688551,65.3735299 84.7094867,63.4646823 C81.8149523,62.369983 79.8481533,61.6261488 78.8090896,61.2331798 L78.5775269,61.1456039 C78.1500264,60.9839252 77.9362762,60.9030859 77.9362762,60.9030859 C74.752517,59.3934371 75.2387409,57.9432009 79.3949479,56.5523772 L125.784204,41.2174066 Z M154.335412,31.6139788 C161.26959,34.2539968 162.856102,34.789623 163.572534,35.2044675 C164.288965,35.6193119 166.25321,36.5097897 165.652859,37.9300542 C165.652859,37.9300542 165.64367,37.944501 165.625293,37.9733947 L165.576285,38.0504443 C165.402715,38.3233286 164.934077,39.060116 164.170371,40.2608066 L167.155989,41.4769313 L171.86501,41.2174066 C173.810351,41.1386345 175.402349,41.3421672 176.641005,41.8280049 C177.87966,42.3138426 179.094554,42.7836585 180.285689,43.2374526 C181.782496,43.9567989 181.782496,44.6383917 180.285689,45.2822309 C180.285689,45.2822309 179.624366,45.530012 178.301721,46.0255744 L177.941681,46.1604723 C176.066476,46.8630654 173.066146,47.9872145 168.940693,49.5329194 L168.100601,49.8476812 C167.81557,49.9544753 167.525538,50.0631431 167.230505,50.1736844 C165.532615,50.7595625 163.766991,50.7595625 161.933633,50.1736844 L161.912858,50.1660444 C161.725884,50.097285 160.276832,49.5643997 157.565702,48.5673885 C156.730001,48.2005153 156.485438,47.4915491 156.832013,46.4404899 C156.832013,46.4404899 156.938055,46.0544035 157.150139,45.2822309 L154.189014,44.1647355 L147.295601,44.6500336 C144.200398,44.8965342 141.676271,44.5503897 139.72322,43.6116 C139.72322,43.6116 136.665627,42.4469191 130.55044,40.1175575 C128.454533,39.2395876 128.199464,38.1218477 129.785234,36.7643378 L129.845471,36.7053399 C130.08642,36.4693482 131.050215,35.5253814 132.736855,33.8734395 C127.130059,32.6185318 119.788518,32.5526192 110.712231,33.6757016 C105.728098,33.8734395 104.30077,31.6500163 107.570942,30.7875904 C113.025955,28.4257382 135.511787,24.8478006 154.335412,31.6139788 Z" id="Hammer" fill="color(display-p3 0.000 0.000 0.000)"></path>
    </g>
</svg>